<mxfile host="Electron" modified="2023-08-01T12:27:43.195Z" agent="Mozilla/5.0 (X11; Linux x86_64) AppleWebKit/537.36 (KHTML, like Gecko) draw.io/21.6.1 Chrome/112.0.5615.204 Electron/24.6.4 Safari/537.36" etag="FULTr8MrfAaVWPYeWpKF" version="21.6.1" type="device">
  <diagram name="Page-1" id="efa7a0a1-bf9b-a30e-e6df-94a7791c09e9">
    <mxGraphModel dx="2513" dy="981" grid="1" gridSize="10" guides="1" tooltips="1" connect="1" arrows="1" fold="1" page="1" pageScale="1" pageWidth="826" pageHeight="1169" background="none" math="0" shadow="0">
      <root>
        <mxCell id="0" />
        <mxCell id="1" parent="0" />
        <mxCell id="WO7KmBGHJ9-n3TspwktH-127" value="" style="rounded=0;whiteSpace=wrap;html=1;" vertex="1" parent="1">
          <mxGeometry x="-150" y="1230" width="910" height="620" as="geometry" />
        </mxCell>
        <mxCell id="zc4t8N1WEWAjIhmc4Z5t-135" style="edgeStyle=orthogonalEdgeStyle;rounded=0;orthogonalLoop=1;jettySize=auto;html=1;exitX=0.5;exitY=1;exitDx=0;exitDy=0;entryX=0.5;entryY=0;entryDx=0;entryDy=0;" parent="1" source="29" target="zc4t8N1WEWAjIhmc4Z5t-131" edge="1">
          <mxGeometry relative="1" as="geometry" />
        </mxCell>
        <mxCell id="WO7KmBGHJ9-n3TspwktH-54" style="edgeStyle=orthogonalEdgeStyle;rounded=0;orthogonalLoop=1;jettySize=auto;html=1;exitX=1;exitY=0.25;exitDx=0;exitDy=0;" edge="1" parent="1" source="29" target="WO7KmBGHJ9-n3TspwktH-52">
          <mxGeometry relative="1" as="geometry">
            <mxPoint x="290" y="530" as="targetPoint" />
          </mxGeometry>
        </mxCell>
        <mxCell id="WO7KmBGHJ9-n3TspwktH-63" style="edgeStyle=orthogonalEdgeStyle;rounded=0;orthogonalLoop=1;jettySize=auto;html=1;exitX=0.5;exitY=0;exitDx=0;exitDy=0;" edge="1" parent="1" source="29" target="WO7KmBGHJ9-n3TspwktH-61">
          <mxGeometry relative="1" as="geometry" />
        </mxCell>
        <mxCell id="29" value="&lt;p style=&quot;margin: 0px; margin-top: 4px; text-align: center; text-decoration: underline;&quot;&gt;&lt;b&gt;MASTER&lt;/b&gt;&lt;/p&gt;&lt;hr&gt;&lt;p style=&quot;margin: 0px; margin-left: 8px;&quot;&gt;master_state&lt;/p&gt;" style="verticalAlign=top;align=left;overflow=fill;fontSize=12;fontFamily=Helvetica;html=1;strokeColor=#003366;shadow=1;fillColor=#D4E1F5;fontColor=#003366" parent="1" vertex="1">
          <mxGeometry x="83.00000000000028" y="480.00000000000074" width="160" height="200" as="geometry" />
        </mxCell>
        <mxCell id="WO7KmBGHJ9-n3TspwktH-73" style="edgeStyle=orthogonalEdgeStyle;rounded=0;orthogonalLoop=1;jettySize=auto;html=1;exitX=0.5;exitY=0;exitDx=0;exitDy=0;" edge="1" parent="1" source="zc4t8N1WEWAjIhmc4Z5t-127" target="WO7KmBGHJ9-n3TspwktH-67">
          <mxGeometry relative="1" as="geometry" />
        </mxCell>
        <mxCell id="WO7KmBGHJ9-n3TspwktH-78" style="edgeStyle=orthogonalEdgeStyle;rounded=0;orthogonalLoop=1;jettySize=auto;html=1;exitX=0;exitY=0.5;exitDx=0;exitDy=0;entryX=1;entryY=0.5;entryDx=0;entryDy=0;" edge="1" parent="1" source="zc4t8N1WEWAjIhmc4Z5t-127" target="WO7KmBGHJ9-n3TspwktH-76">
          <mxGeometry relative="1" as="geometry" />
        </mxCell>
        <mxCell id="zc4t8N1WEWAjIhmc4Z5t-127" value="&lt;p style=&quot;margin: 0px; margin-top: 4px; text-align: center; text-decoration: underline;&quot;&gt;&lt;b&gt;IMU&lt;/b&gt;&lt;/p&gt;&lt;hr&gt;&lt;p style=&quot;margin: 0px; margin-left: 8px;&quot;&gt;gyro_angle&lt;/p&gt;&lt;p style=&quot;margin: 0px; margin-left: 8px;&quot;&gt;accel_angle&lt;/p&gt;&lt;p style=&quot;margin: 0px; margin-left: 8px;&quot;&gt;robot_angle&lt;/p&gt;&lt;p style=&quot;margin: 0px; margin-left: 8px;&quot;&gt;is_angle_critical&lt;/p&gt;&lt;p style=&quot;margin: 0px; margin-left: 8px;&quot;&gt;&lt;br&gt;&lt;/p&gt;" style="verticalAlign=top;align=left;overflow=fill;fontSize=12;fontFamily=Helvetica;html=1;strokeColor=#003366;shadow=1;fillColor=#D4E1F5;fontColor=#003366" parent="1" vertex="1">
          <mxGeometry x="940.0000000000002" y="480.0000000000007" width="160" height="200" as="geometry" />
        </mxCell>
        <mxCell id="WO7KmBGHJ9-n3TspwktH-50" style="edgeStyle=orthogonalEdgeStyle;rounded=0;orthogonalLoop=1;jettySize=auto;html=1;exitX=0;exitY=0.75;exitDx=0;exitDy=0;entryX=1;entryY=0.5;entryDx=0;entryDy=0;" edge="1" parent="1" source="zc4t8N1WEWAjIhmc4Z5t-128" target="WO7KmBGHJ9-n3TspwktH-46">
          <mxGeometry relative="1" as="geometry" />
        </mxCell>
        <mxCell id="WO7KmBGHJ9-n3TspwktH-70" style="edgeStyle=orthogonalEdgeStyle;rounded=0;orthogonalLoop=1;jettySize=auto;html=1;exitX=0.5;exitY=0;exitDx=0;exitDy=0;" edge="1" parent="1" source="zc4t8N1WEWAjIhmc4Z5t-128" target="WO7KmBGHJ9-n3TspwktH-65">
          <mxGeometry relative="1" as="geometry">
            <mxPoint x="590" y="440" as="targetPoint" />
          </mxGeometry>
        </mxCell>
        <mxCell id="zc4t8N1WEWAjIhmc4Z5t-128" value="&lt;p style=&quot;margin: 0px; margin-top: 4px; text-align: center; text-decoration: underline;&quot;&gt;&lt;b&gt;PID&lt;/b&gt;&lt;/p&gt;&lt;hr&gt;&lt;p style=&quot;margin: 0px; margin-left: 8px;&quot;&gt;pid_error&lt;/p&gt;&lt;p style=&quot;margin: 0px; margin-left: 8px;&quot;&gt;pid_total&lt;/p&gt;&lt;p style=&quot;margin: 0px; margin-left: 8px;&quot;&gt;Kp&lt;/p&gt;&lt;p style=&quot;margin: 0px; margin-left: 8px;&quot;&gt;Ki&lt;br&gt;Kd&lt;/p&gt;&lt;p style=&quot;margin: 0px; margin-left: 8px;&quot;&gt;pid_p&lt;/p&gt;&lt;p style=&quot;margin: 0px; margin-left: 8px;&quot;&gt;pid_i&lt;/p&gt;&lt;p style=&quot;margin: 0px; margin-left: 8px;&quot;&gt;pid_d&lt;/p&gt;&lt;p style=&quot;margin: 0px; margin-left: 8px;&quot;&gt;&lt;br&gt;&lt;/p&gt;&lt;p style=&quot;margin: 0px; margin-left: 8px;&quot;&gt;&lt;br&gt;&lt;/p&gt;" style="verticalAlign=top;align=left;overflow=fill;fontSize=12;fontFamily=Helvetica;html=1;strokeColor=#003366;shadow=1;fillColor=#D4E1F5;fontColor=#003366" parent="1" vertex="1">
          <mxGeometry x="520.0000000000002" y="480.0000000000007" width="160" height="200" as="geometry" />
        </mxCell>
        <mxCell id="zc4t8N1WEWAjIhmc4Z5t-129" value="&lt;p style=&quot;margin: 0px; margin-top: 4px; text-align: center; text-decoration: underline;&quot;&gt;&lt;b&gt;LOG&lt;/b&gt;&lt;/p&gt;&lt;hr&gt;&lt;p style=&quot;margin: 0px; margin-left: 8px;&quot;&gt;imu_gyro_angle&lt;/p&gt;&lt;p style=&quot;margin: 0px; margin-left: 8px;&quot;&gt;imu_accel_angle&lt;/p&gt;&lt;p style=&quot;margin: 0px; margin-left: 8px;&quot;&gt;pid_total&lt;/p&gt;&lt;p style=&quot;margin: 0px; margin-left: 8px;&quot;&gt;pid_error&lt;/p&gt;" style="verticalAlign=top;align=left;overflow=fill;fontSize=12;fontFamily=Helvetica;html=1;strokeColor=#003366;shadow=1;fillColor=#D4E1F5;fontColor=#003366" parent="1" vertex="1">
          <mxGeometry x="520.0000000000002" y="50.00000000000068" width="160" height="200" as="geometry" />
        </mxCell>
        <mxCell id="WO7KmBGHJ9-n3TspwktH-58" style="edgeStyle=orthogonalEdgeStyle;rounded=0;orthogonalLoop=1;jettySize=auto;html=1;exitX=1;exitY=0.5;exitDx=0;exitDy=0;" edge="1" parent="1" source="zc4t8N1WEWAjIhmc4Z5t-130" target="WO7KmBGHJ9-n3TspwktH-56">
          <mxGeometry relative="1" as="geometry" />
        </mxCell>
        <mxCell id="WO7KmBGHJ9-n3TspwktH-125" style="edgeStyle=orthogonalEdgeStyle;rounded=0;orthogonalLoop=1;jettySize=auto;html=1;exitX=0.5;exitY=1;exitDx=0;exitDy=0;entryX=0.5;entryY=1;entryDx=0;entryDy=0;" edge="1" parent="1" source="zc4t8N1WEWAjIhmc4Z5t-130" target="WO7KmBGHJ9-n3TspwktH-105">
          <mxGeometry relative="1" as="geometry">
            <Array as="points">
              <mxPoint x="-330" y="1060" />
              <mxPoint x="600" y="1060" />
            </Array>
          </mxGeometry>
        </mxCell>
        <mxCell id="zc4t8N1WEWAjIhmc4Z5t-130" value="&lt;p style=&quot;margin: 0px; margin-top: 4px; text-align: center; text-decoration: underline;&quot;&gt;&lt;b&gt;COMMAND&lt;/b&gt;&lt;/p&gt;&lt;hr&gt;&lt;p style=&quot;margin: 0px; margin-left: 8px;&quot;&gt;angle_set_point_plus&lt;/p&gt;&lt;p style=&quot;margin: 0px; margin-left: 8px;&quot;&gt;angle_set_point_minus&lt;br&gt;&lt;/p&gt;&lt;p style=&quot;margin: 0px; margin-left: 8px;&quot;&gt;master_start_stop&lt;/p&gt;&lt;p style=&quot;margin: 0px; margin-left: 8px;&quot;&gt;pid_raise_p&lt;/p&gt;&lt;p style=&quot;margin: 0px; margin-left: 8px;&quot;&gt;pid_raise_i&lt;br&gt;&lt;/p&gt;&lt;p style=&quot;margin: 0px; margin-left: 8px;&quot;&gt;pid_raise_d&lt;br&gt;&lt;/p&gt;&lt;p style=&quot;margin: 0px; margin-left: 8px;&quot;&gt;pid_lower_p&lt;br&gt;&lt;/p&gt;&lt;p style=&quot;margin: 0px; margin-left: 8px;&quot;&gt;pid_lower_i&lt;br&gt;&lt;/p&gt;&lt;p style=&quot;margin: 0px; margin-left: 8px;&quot;&gt;pid_lower_d&lt;br&gt;&lt;/p&gt;&lt;p style=&quot;margin: 0px; margin-left: 8px;&quot;&gt;log_on_off&lt;/p&gt;" style="verticalAlign=top;align=left;overflow=fill;fontSize=12;fontFamily=Helvetica;html=1;strokeColor=#003366;shadow=1;fillColor=#D4E1F5;fontColor=#003366" parent="1" vertex="1">
          <mxGeometry x="-409.9999999999997" y="480.0000000000007" width="160" height="200" as="geometry" />
        </mxCell>
        <mxCell id="zc4t8N1WEWAjIhmc4Z5t-131" value="&lt;p style=&quot;margin: 0px; margin-top: 4px; text-align: center; text-decoration: underline;&quot;&gt;&lt;b&gt;MOTOR CONTROL&lt;/b&gt;&lt;/p&gt;&lt;hr&gt;&lt;p style=&quot;margin: 0px; margin-left: 8px;&quot;&gt;m&lt;/p&gt;&lt;p style=&quot;margin: 0px; margin-left: 8px;&quot;&gt;&lt;br&gt;&lt;/p&gt;" style="verticalAlign=top;align=left;overflow=fill;fontSize=12;fontFamily=Helvetica;html=1;strokeColor=#003366;shadow=1;fillColor=#D4E1F5;fontColor=#003366" parent="1" vertex="1">
          <mxGeometry x="83.00000000000028" y="760.0000000000007" width="160" height="200" as="geometry" />
        </mxCell>
        <mxCell id="zc4t8N1WEWAjIhmc4Z5t-151" style="edgeStyle=orthogonalEdgeStyle;rounded=0;orthogonalLoop=1;jettySize=auto;html=1;exitX=0.5;exitY=0;exitDx=0;exitDy=0;entryX=0.5;entryY=1;entryDx=0;entryDy=0;" parent="1" source="zc4t8N1WEWAjIhmc4Z5t-150" target="zc4t8N1WEWAjIhmc4Z5t-127" edge="1">
          <mxGeometry relative="1" as="geometry" />
        </mxCell>
        <mxCell id="zc4t8N1WEWAjIhmc4Z5t-150" value="&lt;p style=&quot;margin: 0px; margin-top: 4px; text-align: center; text-decoration: underline;&quot;&gt;&lt;b&gt;MPU6050&lt;/b&gt;&lt;/p&gt;&lt;hr&gt;&lt;p style=&quot;margin: 0px; margin-left: 8px;&quot;&gt;m&lt;/p&gt;&lt;p style=&quot;margin: 0px; margin-left: 8px;&quot;&gt;&lt;br&gt;&lt;/p&gt;" style="verticalAlign=top;align=left;overflow=fill;fontSize=12;fontFamily=Helvetica;html=1;strokeColor=#003366;shadow=1;fillColor=#D4E1F5;fontColor=#003366" parent="1" vertex="1">
          <mxGeometry x="940.0000000000002" y="760.0000000000007" width="160" height="200" as="geometry" />
        </mxCell>
        <mxCell id="WO7KmBGHJ9-n3TspwktH-51" style="edgeStyle=orthogonalEdgeStyle;rounded=0;orthogonalLoop=1;jettySize=auto;html=1;exitX=0;exitY=0.5;exitDx=0;exitDy=0;entryX=1;entryY=0.75;entryDx=0;entryDy=0;" edge="1" parent="1" source="WO7KmBGHJ9-n3TspwktH-46" target="29">
          <mxGeometry relative="1" as="geometry" />
        </mxCell>
        <mxCell id="WO7KmBGHJ9-n3TspwktH-46" value="Queue" style="swimlane;fontStyle=0;childLayout=stackLayout;horizontal=1;startSize=30;horizontalStack=0;resizeParent=1;resizeParentMax=0;resizeLast=0;collapsible=1;marginBottom=0;whiteSpace=wrap;html=1;fillColor=#cdeb8b;strokeColor=#36393d;" vertex="1" parent="1">
          <mxGeometry x="320" y="600" width="140" height="60" as="geometry" />
        </mxCell>
        <mxCell id="WO7KmBGHJ9-n3TspwktH-47" value="master_rx_message_t" style="text;strokeColor=#36393d;fillColor=#cdeb8b;align=left;verticalAlign=middle;spacingLeft=4;spacingRight=4;overflow=hidden;points=[[0,0.5],[1,0.5]];portConstraint=eastwest;rotatable=0;whiteSpace=wrap;html=1;" vertex="1" parent="WO7KmBGHJ9-n3TspwktH-46">
          <mxGeometry y="30" width="140" height="30" as="geometry" />
        </mxCell>
        <mxCell id="WO7KmBGHJ9-n3TspwktH-55" style="edgeStyle=orthogonalEdgeStyle;rounded=0;orthogonalLoop=1;jettySize=auto;html=1;exitX=1;exitY=0.5;exitDx=0;exitDy=0;entryX=0;entryY=0.25;entryDx=0;entryDy=0;" edge="1" parent="1" source="WO7KmBGHJ9-n3TspwktH-52" target="zc4t8N1WEWAjIhmc4Z5t-128">
          <mxGeometry relative="1" as="geometry" />
        </mxCell>
        <mxCell id="WO7KmBGHJ9-n3TspwktH-52" value="Queue" style="swimlane;fontStyle=0;childLayout=stackLayout;horizontal=1;startSize=30;horizontalStack=0;resizeParent=1;resizeParentMax=0;resizeLast=0;collapsible=1;marginBottom=0;whiteSpace=wrap;html=1;fillColor=#ffcc99;strokeColor=#36393d;" vertex="1" parent="1">
          <mxGeometry x="300" y="500" width="167" height="60" as="geometry" />
        </mxCell>
        <mxCell id="WO7KmBGHJ9-n3TspwktH-53" value="pid_rx_message_t" style="text;strokeColor=#36393d;fillColor=#ffcc99;align=left;verticalAlign=middle;spacingLeft=4;spacingRight=4;overflow=hidden;points=[[0,0.5],[1,0.5]];portConstraint=eastwest;rotatable=0;whiteSpace=wrap;html=1;" vertex="1" parent="WO7KmBGHJ9-n3TspwktH-52">
          <mxGeometry y="30" width="167" height="30" as="geometry" />
        </mxCell>
        <mxCell id="WO7KmBGHJ9-n3TspwktH-60" style="edgeStyle=orthogonalEdgeStyle;rounded=0;orthogonalLoop=1;jettySize=auto;html=1;exitX=1;exitY=0.5;exitDx=0;exitDy=0;" edge="1" parent="1" source="WO7KmBGHJ9-n3TspwktH-56" target="29">
          <mxGeometry relative="1" as="geometry" />
        </mxCell>
        <mxCell id="WO7KmBGHJ9-n3TspwktH-56" value="Queue" style="swimlane;fontStyle=0;childLayout=stackLayout;horizontal=1;startSize=30;horizontalStack=0;resizeParent=1;resizeParentMax=0;resizeLast=0;collapsible=1;marginBottom=0;whiteSpace=wrap;html=1;fillColor=#cdeb8b;strokeColor=#36393d;" vertex="1" parent="1">
          <mxGeometry x="-160" y="550" width="180" height="60" as="geometry" />
        </mxCell>
        <mxCell id="WO7KmBGHJ9-n3TspwktH-57" value="master_rx_message_t" style="text;strokeColor=#36393d;fillColor=#cdeb8b;align=left;verticalAlign=middle;spacingLeft=4;spacingRight=4;overflow=hidden;points=[[0,0.5],[1,0.5]];portConstraint=eastwest;rotatable=0;whiteSpace=wrap;html=1;" vertex="1" parent="WO7KmBGHJ9-n3TspwktH-56">
          <mxGeometry y="30" width="180" height="30" as="geometry" />
        </mxCell>
        <mxCell id="WO7KmBGHJ9-n3TspwktH-64" style="edgeStyle=orthogonalEdgeStyle;rounded=0;orthogonalLoop=1;jettySize=auto;html=1;exitX=0.5;exitY=0;exitDx=0;exitDy=0;entryX=0;entryY=0.5;entryDx=0;entryDy=0;" edge="1" parent="1" source="WO7KmBGHJ9-n3TspwktH-61" target="zc4t8N1WEWAjIhmc4Z5t-129">
          <mxGeometry relative="1" as="geometry" />
        </mxCell>
        <mxCell id="WO7KmBGHJ9-n3TspwktH-61" value="Queue" style="swimlane;fontStyle=0;childLayout=stackLayout;horizontal=1;startSize=30;horizontalStack=0;resizeParent=1;resizeParentMax=0;resizeLast=0;collapsible=1;marginBottom=0;whiteSpace=wrap;html=1;fillColor=#ffcccc;strokeColor=#36393d;" vertex="1" parent="1">
          <mxGeometry x="93" y="250" width="140" height="60" as="geometry" />
        </mxCell>
        <mxCell id="WO7KmBGHJ9-n3TspwktH-62" value="log_rx_message_t" style="text;strokeColor=#36393d;fillColor=#ffcccc;align=left;verticalAlign=middle;spacingLeft=4;spacingRight=4;overflow=hidden;points=[[0,0.5],[1,0.5]];portConstraint=eastwest;rotatable=0;whiteSpace=wrap;html=1;" vertex="1" parent="WO7KmBGHJ9-n3TspwktH-61">
          <mxGeometry y="30" width="140" height="30" as="geometry" />
        </mxCell>
        <mxCell id="WO7KmBGHJ9-n3TspwktH-71" style="edgeStyle=orthogonalEdgeStyle;rounded=0;orthogonalLoop=1;jettySize=auto;html=1;exitX=0.5;exitY=0;exitDx=0;exitDy=0;entryX=0.5;entryY=1;entryDx=0;entryDy=0;" edge="1" parent="1" source="WO7KmBGHJ9-n3TspwktH-65" target="zc4t8N1WEWAjIhmc4Z5t-129">
          <mxGeometry relative="1" as="geometry" />
        </mxCell>
        <mxCell id="WO7KmBGHJ9-n3TspwktH-65" value="Queue" style="swimlane;fontStyle=0;childLayout=stackLayout;horizontal=1;startSize=30;horizontalStack=0;resizeParent=1;resizeParentMax=0;resizeLast=0;collapsible=1;marginBottom=0;whiteSpace=wrap;html=1;fillColor=#ffcccc;strokeColor=#36393d;" vertex="1" parent="1">
          <mxGeometry x="530" y="330" width="140" height="60" as="geometry" />
        </mxCell>
        <mxCell id="WO7KmBGHJ9-n3TspwktH-66" value="log_rx_message_t" style="text;strokeColor=#36393d;fillColor=#ffcccc;align=left;verticalAlign=middle;spacingLeft=4;spacingRight=4;overflow=hidden;points=[[0,0.5],[1,0.5]];portConstraint=eastwest;rotatable=0;whiteSpace=wrap;html=1;" vertex="1" parent="WO7KmBGHJ9-n3TspwktH-65">
          <mxGeometry y="30" width="140" height="30" as="geometry" />
        </mxCell>
        <mxCell id="WO7KmBGHJ9-n3TspwktH-74" style="edgeStyle=orthogonalEdgeStyle;rounded=0;orthogonalLoop=1;jettySize=auto;html=1;exitX=0.5;exitY=0;exitDx=0;exitDy=0;entryX=1;entryY=0.5;entryDx=0;entryDy=0;" edge="1" parent="1" source="WO7KmBGHJ9-n3TspwktH-67" target="zc4t8N1WEWAjIhmc4Z5t-129">
          <mxGeometry relative="1" as="geometry" />
        </mxCell>
        <mxCell id="WO7KmBGHJ9-n3TspwktH-67" value="Queue" style="swimlane;fontStyle=0;childLayout=stackLayout;horizontal=1;startSize=30;horizontalStack=0;resizeParent=1;resizeParentMax=0;resizeLast=0;collapsible=1;marginBottom=0;whiteSpace=wrap;html=1;fillColor=#ffcccc;strokeColor=#36393d;" vertex="1" parent="1">
          <mxGeometry x="950" y="270" width="140" height="60" as="geometry" />
        </mxCell>
        <mxCell id="WO7KmBGHJ9-n3TspwktH-68" value="log_rx_message_t" style="text;strokeColor=#36393d;fillColor=#ffcccc;align=left;verticalAlign=middle;spacingLeft=4;spacingRight=4;overflow=hidden;points=[[0,0.5],[1,0.5]];portConstraint=eastwest;rotatable=0;whiteSpace=wrap;html=1;" vertex="1" parent="WO7KmBGHJ9-n3TspwktH-67">
          <mxGeometry y="30" width="140" height="30" as="geometry" />
        </mxCell>
        <mxCell id="WO7KmBGHJ9-n3TspwktH-75" value="Queue" style="swimlane;fontStyle=0;childLayout=stackLayout;horizontal=1;startSize=30;horizontalStack=0;resizeParent=1;resizeParentMax=0;resizeLast=0;collapsible=1;marginBottom=0;whiteSpace=wrap;html=1;fillColor=#ffcc99;strokeColor=#36393d;" vertex="1" parent="1">
          <mxGeometry x="740" y="535" width="140" height="60" as="geometry" />
        </mxCell>
        <mxCell id="WO7KmBGHJ9-n3TspwktH-76" value="pid_rx_message_t" style="text;strokeColor=#36393d;fillColor=#ffcc99;align=left;verticalAlign=middle;spacingLeft=4;spacingRight=4;overflow=hidden;points=[[0,0.5],[1,0.5]];portConstraint=eastwest;rotatable=0;whiteSpace=wrap;html=1;" vertex="1" parent="WO7KmBGHJ9-n3TspwktH-75">
          <mxGeometry y="30" width="140" height="30" as="geometry" />
        </mxCell>
        <mxCell id="WO7KmBGHJ9-n3TspwktH-79" style="edgeStyle=orthogonalEdgeStyle;rounded=0;orthogonalLoop=1;jettySize=auto;html=1;exitX=0;exitY=0.5;exitDx=0;exitDy=0;entryX=1;entryY=0.5;entryDx=0;entryDy=0;" edge="1" parent="1" source="WO7KmBGHJ9-n3TspwktH-76" target="zc4t8N1WEWAjIhmc4Z5t-128">
          <mxGeometry relative="1" as="geometry" />
        </mxCell>
        <mxCell id="WO7KmBGHJ9-n3TspwktH-83" style="edgeStyle=orthogonalEdgeStyle;rounded=0;orthogonalLoop=1;jettySize=auto;html=1;exitX=1;exitY=0.5;exitDx=0;exitDy=0;entryX=0;entryY=0.5;entryDx=0;entryDy=0;" edge="1" parent="1" source="WO7KmBGHJ9-n3TspwktH-80" target="WO7KmBGHJ9-n3TspwktH-81">
          <mxGeometry relative="1" as="geometry" />
        </mxCell>
        <mxCell id="WO7KmBGHJ9-n3TspwktH-80" value="UART ISR" style="rounded=0;whiteSpace=wrap;html=1;" vertex="1" parent="1">
          <mxGeometry x="-820" y="550" width="120" height="60" as="geometry" />
        </mxCell>
        <mxCell id="WO7KmBGHJ9-n3TspwktH-84" style="edgeStyle=orthogonalEdgeStyle;rounded=0;orthogonalLoop=1;jettySize=auto;html=1;exitX=1;exitY=0.5;exitDx=0;exitDy=0;entryX=0;entryY=0.5;entryDx=0;entryDy=0;" edge="1" parent="1" source="WO7KmBGHJ9-n3TspwktH-81" target="zc4t8N1WEWAjIhmc4Z5t-130">
          <mxGeometry relative="1" as="geometry" />
        </mxCell>
        <mxCell id="WO7KmBGHJ9-n3TspwktH-81" value="Queue" style="swimlane;fontStyle=0;childLayout=stackLayout;horizontal=1;startSize=30;horizontalStack=0;resizeParent=1;resizeParentMax=0;resizeLast=0;collapsible=1;marginBottom=0;whiteSpace=wrap;html=1;fillColor=#b0e3e6;strokeColor=#0e8088;" vertex="1" parent="1">
          <mxGeometry x="-630" y="550" width="140" height="60" as="geometry" />
        </mxCell>
        <mxCell id="WO7KmBGHJ9-n3TspwktH-82" value="command : uint8_t" style="text;align=left;verticalAlign=middle;spacingLeft=4;spacingRight=4;overflow=hidden;points=[[0,0.5],[1,0.5]];portConstraint=eastwest;rotatable=0;whiteSpace=wrap;html=1;fillColor=#b0e3e6;strokeColor=#0e8088;" vertex="1" parent="WO7KmBGHJ9-n3TspwktH-81">
          <mxGeometry y="30" width="140" height="30" as="geometry" />
        </mxCell>
        <mxCell id="WO7KmBGHJ9-n3TspwktH-87" value="pid_rx_message_t" style="swimlane;fontStyle=0;childLayout=stackLayout;horizontal=1;startSize=30;horizontalStack=0;resizeParent=1;resizeParentMax=0;resizeLast=0;collapsible=1;marginBottom=0;whiteSpace=wrap;html=1;fillColor=#ffcc99;strokeColor=#36393d;" vertex="1" parent="1">
          <mxGeometry x="-100" y="1289" width="210" height="450" as="geometry" />
        </mxCell>
        <mxCell id="WO7KmBGHJ9-n3TspwktH-88" value="command_pid_raise_p : uint8_t" style="text;strokeColor=#36393d;fillColor=#ffcc99;align=left;verticalAlign=middle;spacingLeft=4;spacingRight=4;overflow=hidden;points=[[0,0.5],[1,0.5]];portConstraint=eastwest;rotatable=0;whiteSpace=wrap;html=1;" vertex="1" parent="WO7KmBGHJ9-n3TspwktH-87">
          <mxGeometry y="30" width="210" height="30" as="geometry" />
        </mxCell>
        <mxCell id="WO7KmBGHJ9-n3TspwktH-93" value="command_pid_raise_i : uint8_t" style="text;strokeColor=#36393d;fillColor=#ffcc99;align=left;verticalAlign=middle;spacingLeft=4;spacingRight=4;overflow=hidden;points=[[0,0.5],[1,0.5]];portConstraint=eastwest;rotatable=0;whiteSpace=wrap;html=1;" vertex="1" parent="WO7KmBGHJ9-n3TspwktH-87">
          <mxGeometry y="60" width="210" height="30" as="geometry" />
        </mxCell>
        <mxCell id="WO7KmBGHJ9-n3TspwktH-94" value="command_pid_raise_d : uint8_t" style="text;strokeColor=#36393d;fillColor=#ffcc99;align=left;verticalAlign=middle;spacingLeft=4;spacingRight=4;overflow=hidden;points=[[0,0.5],[1,0.5]];portConstraint=eastwest;rotatable=0;whiteSpace=wrap;html=1;" vertex="1" parent="WO7KmBGHJ9-n3TspwktH-87">
          <mxGeometry y="90" width="210" height="30" as="geometry" />
        </mxCell>
        <mxCell id="WO7KmBGHJ9-n3TspwktH-95" value="command_pid_raise_p10 : uint8_t" style="text;strokeColor=#36393d;fillColor=#ffcc99;align=left;verticalAlign=middle;spacingLeft=4;spacingRight=4;overflow=hidden;points=[[0,0.5],[1,0.5]];portConstraint=eastwest;rotatable=0;whiteSpace=wrap;html=1;" vertex="1" parent="WO7KmBGHJ9-n3TspwktH-87">
          <mxGeometry y="120" width="210" height="30" as="geometry" />
        </mxCell>
        <mxCell id="WO7KmBGHJ9-n3TspwktH-96" value="command_pid_raise_i1 : uint8_t" style="text;strokeColor=#36393d;fillColor=#ffcc99;align=left;verticalAlign=middle;spacingLeft=4;spacingRight=4;overflow=hidden;points=[[0,0.5],[1,0.5]];portConstraint=eastwest;rotatable=0;whiteSpace=wrap;html=1;" vertex="1" parent="WO7KmBGHJ9-n3TspwktH-87">
          <mxGeometry y="150" width="210" height="30" as="geometry" />
        </mxCell>
        <mxCell id="WO7KmBGHJ9-n3TspwktH-97" value="command_pid_raise_d10 : uint8_t" style="text;strokeColor=#36393d;fillColor=#ffcc99;align=left;verticalAlign=middle;spacingLeft=4;spacingRight=4;overflow=hidden;points=[[0,0.5],[1,0.5]];portConstraint=eastwest;rotatable=0;whiteSpace=wrap;html=1;" vertex="1" parent="WO7KmBGHJ9-n3TspwktH-87">
          <mxGeometry y="180" width="210" height="30" as="geometry" />
        </mxCell>
        <mxCell id="WO7KmBGHJ9-n3TspwktH-98" value="command_pid_lower_p : uint8_t" style="text;strokeColor=#36393d;fillColor=#ffcc99;align=left;verticalAlign=middle;spacingLeft=4;spacingRight=4;overflow=hidden;points=[[0,0.5],[1,0.5]];portConstraint=eastwest;rotatable=0;whiteSpace=wrap;html=1;" vertex="1" parent="WO7KmBGHJ9-n3TspwktH-87">
          <mxGeometry y="210" width="210" height="30" as="geometry" />
        </mxCell>
        <mxCell id="WO7KmBGHJ9-n3TspwktH-99" value="command_pid_lower_i : uint8_t" style="text;strokeColor=#36393d;fillColor=#ffcc99;align=left;verticalAlign=middle;spacingLeft=4;spacingRight=4;overflow=hidden;points=[[0,0.5],[1,0.5]];portConstraint=eastwest;rotatable=0;whiteSpace=wrap;html=1;" vertex="1" parent="WO7KmBGHJ9-n3TspwktH-87">
          <mxGeometry y="240" width="210" height="30" as="geometry" />
        </mxCell>
        <mxCell id="WO7KmBGHJ9-n3TspwktH-100" value="command_pid_lower_d : uint8_t" style="text;strokeColor=#36393d;fillColor=#ffcc99;align=left;verticalAlign=middle;spacingLeft=4;spacingRight=4;overflow=hidden;points=[[0,0.5],[1,0.5]];portConstraint=eastwest;rotatable=0;whiteSpace=wrap;html=1;" vertex="1" parent="WO7KmBGHJ9-n3TspwktH-87">
          <mxGeometry y="270" width="210" height="30" as="geometry" />
        </mxCell>
        <mxCell id="WO7KmBGHJ9-n3TspwktH-101" value="command_pid_lower_p10 : uint8_t" style="text;strokeColor=#36393d;fillColor=#ffcc99;align=left;verticalAlign=middle;spacingLeft=4;spacingRight=4;overflow=hidden;points=[[0,0.5],[1,0.5]];portConstraint=eastwest;rotatable=0;whiteSpace=wrap;html=1;" vertex="1" parent="WO7KmBGHJ9-n3TspwktH-87">
          <mxGeometry y="300" width="210" height="30" as="geometry" />
        </mxCell>
        <mxCell id="WO7KmBGHJ9-n3TspwktH-102" value="command_pid_lower_i1 : uint8_t" style="text;strokeColor=#36393d;fillColor=#ffcc99;align=left;verticalAlign=middle;spacingLeft=4;spacingRight=4;overflow=hidden;points=[[0,0.5],[1,0.5]];portConstraint=eastwest;rotatable=0;whiteSpace=wrap;html=1;" vertex="1" parent="WO7KmBGHJ9-n3TspwktH-87">
          <mxGeometry y="330" width="210" height="30" as="geometry" />
        </mxCell>
        <mxCell id="WO7KmBGHJ9-n3TspwktH-103" value="command_pid_lower_d10 : uint8_t" style="text;strokeColor=#36393d;fillColor=#ffcc99;align=left;verticalAlign=middle;spacingLeft=4;spacingRight=4;overflow=hidden;points=[[0,0.5],[1,0.5]];portConstraint=eastwest;rotatable=0;whiteSpace=wrap;html=1;" vertex="1" parent="WO7KmBGHJ9-n3TspwktH-87">
          <mxGeometry y="360" width="210" height="30" as="geometry" />
        </mxCell>
        <mxCell id="WO7KmBGHJ9-n3TspwktH-113" value="imu_robot_angle : float" style="text;strokeColor=#36393d;fillColor=#ffcc99;align=left;verticalAlign=middle;spacingLeft=4;spacingRight=4;overflow=hidden;points=[[0,0.5],[1,0.5]];portConstraint=eastwest;rotatable=0;whiteSpace=wrap;html=1;" vertex="1" parent="WO7KmBGHJ9-n3TspwktH-87">
          <mxGeometry y="390" width="210" height="30" as="geometry" />
        </mxCell>
        <mxCell id="WO7KmBGHJ9-n3TspwktH-115" value="master_angle_set_point : float" style="text;strokeColor=#36393d;fillColor=#ffcc99;align=left;verticalAlign=middle;spacingLeft=4;spacingRight=4;overflow=hidden;points=[[0,0.5],[1,0.5]];portConstraint=eastwest;rotatable=0;whiteSpace=wrap;html=1;" vertex="1" parent="WO7KmBGHJ9-n3TspwktH-87">
          <mxGeometry y="420" width="210" height="30" as="geometry" />
        </mxCell>
        <mxCell id="WO7KmBGHJ9-n3TspwktH-124" style="edgeStyle=orthogonalEdgeStyle;rounded=0;orthogonalLoop=1;jettySize=auto;html=1;exitX=0.5;exitY=0;exitDx=0;exitDy=0;entryX=0.5;entryY=1;entryDx=0;entryDy=0;" edge="1" parent="1" source="WO7KmBGHJ9-n3TspwktH-105" target="zc4t8N1WEWAjIhmc4Z5t-128">
          <mxGeometry relative="1" as="geometry" />
        </mxCell>
        <mxCell id="WO7KmBGHJ9-n3TspwktH-105" value="Queue" style="swimlane;fontStyle=0;childLayout=stackLayout;horizontal=1;startSize=30;horizontalStack=0;resizeParent=1;resizeParentMax=0;resizeLast=0;collapsible=1;marginBottom=0;whiteSpace=wrap;html=1;fillColor=#ffcc99;strokeColor=#36393d;" vertex="1" parent="1">
          <mxGeometry x="516.5" y="840" width="167" height="60" as="geometry" />
        </mxCell>
        <mxCell id="WO7KmBGHJ9-n3TspwktH-106" value="pid_rx_message_t" style="text;strokeColor=#36393d;fillColor=#ffcc99;align=left;verticalAlign=middle;spacingLeft=4;spacingRight=4;overflow=hidden;points=[[0,0.5],[1,0.5]];portConstraint=eastwest;rotatable=0;whiteSpace=wrap;html=1;" vertex="1" parent="WO7KmBGHJ9-n3TspwktH-105">
          <mxGeometry y="30" width="167" height="30" as="geometry" />
        </mxCell>
        <mxCell id="WO7KmBGHJ9-n3TspwktH-109" value="master_rx_message_t" style="swimlane;fontStyle=0;childLayout=stackLayout;horizontal=1;startSize=30;horizontalStack=0;resizeParent=1;resizeParentMax=0;resizeLast=0;collapsible=1;marginBottom=0;whiteSpace=wrap;html=1;fillColor=#cdeb8b;strokeColor=#36393d;" vertex="1" parent="1">
          <mxGeometry x="180" y="1289" width="260" height="150" as="geometry" />
        </mxCell>
        <mxCell id="WO7KmBGHJ9-n3TspwktH-110" value="command_angle_set_point_plus : uint8_t" style="text;strokeColor=#36393d;fillColor=#cdeb8b;align=left;verticalAlign=middle;spacingLeft=4;spacingRight=4;overflow=hidden;points=[[0,0.5],[1,0.5]];portConstraint=eastwest;rotatable=0;whiteSpace=wrap;html=1;" vertex="1" parent="WO7KmBGHJ9-n3TspwktH-109">
          <mxGeometry y="30" width="260" height="30" as="geometry" />
        </mxCell>
        <mxCell id="WO7KmBGHJ9-n3TspwktH-111" value="command_angle_set_point_minus : uint8_t" style="text;strokeColor=#36393d;fillColor=#cdeb8b;align=left;verticalAlign=middle;spacingLeft=4;spacingRight=4;overflow=hidden;points=[[0,0.5],[1,0.5]];portConstraint=eastwest;rotatable=0;whiteSpace=wrap;html=1;" vertex="1" parent="WO7KmBGHJ9-n3TspwktH-109">
          <mxGeometry y="60" width="260" height="30" as="geometry" />
        </mxCell>
        <mxCell id="WO7KmBGHJ9-n3TspwktH-112" value="command_master_start_stop : uint8_t" style="text;strokeColor=#36393d;fillColor=#cdeb8b;align=left;verticalAlign=middle;spacingLeft=4;spacingRight=4;overflow=hidden;points=[[0,0.5],[1,0.5]];portConstraint=eastwest;rotatable=0;whiteSpace=wrap;html=1;" vertex="1" parent="WO7KmBGHJ9-n3TspwktH-109">
          <mxGeometry y="90" width="260" height="30" as="geometry" />
        </mxCell>
        <mxCell id="WO7KmBGHJ9-n3TspwktH-126" value="pid_total : float" style="text;strokeColor=#36393d;fillColor=#cdeb8b;align=left;verticalAlign=middle;spacingLeft=4;spacingRight=4;overflow=hidden;points=[[0,0.5],[1,0.5]];portConstraint=eastwest;rotatable=0;whiteSpace=wrap;html=1;" vertex="1" parent="WO7KmBGHJ9-n3TspwktH-109">
          <mxGeometry y="120" width="260" height="30" as="geometry" />
        </mxCell>
        <mxCell id="WO7KmBGHJ9-n3TspwktH-116" value="log_rx_message_t" style="swimlane;fontStyle=0;childLayout=stackLayout;horizontal=1;startSize=30;horizontalStack=0;resizeParent=1;resizeParentMax=0;resizeLast=0;collapsible=1;marginBottom=0;whiteSpace=wrap;html=1;fillColor=#ffcccc;strokeColor=#36393d;" vertex="1" parent="1">
          <mxGeometry x="510" y="1289" width="200" height="180" as="geometry" />
        </mxCell>
        <mxCell id="WO7KmBGHJ9-n3TspwktH-117" value="command_log_on_off : uint8_t" style="text;strokeColor=#36393d;fillColor=#ffcccc;align=left;verticalAlign=middle;spacingLeft=4;spacingRight=4;overflow=hidden;points=[[0,0.5],[1,0.5]];portConstraint=eastwest;rotatable=0;whiteSpace=wrap;html=1;" vertex="1" parent="WO7KmBGHJ9-n3TspwktH-116">
          <mxGeometry y="30" width="200" height="30" as="geometry" />
        </mxCell>
        <mxCell id="WO7KmBGHJ9-n3TspwktH-119" value="pid_total : float" style="text;strokeColor=#36393d;fillColor=#ffcccc;align=left;verticalAlign=middle;spacingLeft=4;spacingRight=4;overflow=hidden;points=[[0,0.5],[1,0.5]];portConstraint=eastwest;rotatable=0;whiteSpace=wrap;html=1;" vertex="1" parent="WO7KmBGHJ9-n3TspwktH-116">
          <mxGeometry y="60" width="200" height="30" as="geometry" />
        </mxCell>
        <mxCell id="WO7KmBGHJ9-n3TspwktH-120" value="pid_error : float" style="text;strokeColor=#36393d;fillColor=#ffcccc;align=left;verticalAlign=middle;spacingLeft=4;spacingRight=4;overflow=hidden;points=[[0,0.5],[1,0.5]];portConstraint=eastwest;rotatable=0;whiteSpace=wrap;html=1;" vertex="1" parent="WO7KmBGHJ9-n3TspwktH-116">
          <mxGeometry y="90" width="200" height="30" as="geometry" />
        </mxCell>
        <mxCell id="WO7KmBGHJ9-n3TspwktH-121" value="imu_gyro_angle : float" style="text;strokeColor=#36393d;fillColor=#ffcccc;align=left;verticalAlign=middle;spacingLeft=4;spacingRight=4;overflow=hidden;points=[[0,0.5],[1,0.5]];portConstraint=eastwest;rotatable=0;whiteSpace=wrap;html=1;" vertex="1" parent="WO7KmBGHJ9-n3TspwktH-116">
          <mxGeometry y="120" width="200" height="30" as="geometry" />
        </mxCell>
        <mxCell id="WO7KmBGHJ9-n3TspwktH-122" value="imu_accel_angle : float" style="text;strokeColor=#36393d;fillColor=#ffcccc;align=left;verticalAlign=middle;spacingLeft=4;spacingRight=4;overflow=hidden;points=[[0,0.5],[1,0.5]];portConstraint=eastwest;rotatable=0;whiteSpace=wrap;html=1;" vertex="1" parent="WO7KmBGHJ9-n3TspwktH-116">
          <mxGeometry y="150" width="200" height="30" as="geometry" />
        </mxCell>
      </root>
    </mxGraphModel>
  </diagram>
</mxfile>
